<svg xmlns="http://www.w3.org/2000/svg" version="1.1" xmlns:xlink="http://www.w3.org/1999/xlink" width="1500" height="1500" viewBox="0 0 1500 1500"><rect width="1500" height="1500" x="0" y="0" id="background" stroke="transparent" fill="#ffffff"></rect><svg xml:space="preserve" width="1000" height="1000" data-version="2" data-id="lg_jYOgettXnae3npe9IV" viewBox="0 0 530 296" x="250" y="250"><rect width="100%" height="100%" fill="transparent"></rect><path d="M41.595 292.025H5.975l118-288.05h.62l118.01 288.05h-37.48l-32.83-82.7h-97.56zm66.9-167.25-21.99 55.13h74.02l-21.99-55.13q-4.03-10.53-7.74-20.75-3.72-10.23-7.44-24.47-3.71 14.24-7.12 24.31-3.41 10.07-7.74 20.91m192.53 167.25h-33.45V3.975l129.47 178.4 126.98-178.4v288.05h-35.3v-128.85q0-12.7.31-27.72.3-15.02 2.16-34.22-9.6 17.03-18.74 29.89-9.13 12.85-16.57 23.69l-60.08 85.17-61.95-85.17q-7.74-10.84-16.57-23.69-8.82-12.86-18.73-29.89 1.85 19.2 2.16 34.22.31 15.02.31 27.72z"></path></svg></svg>